<?xml version="1.0" standalone="no"?><!DOCTYPE svg PUBLIC "-//W3C//DTD SVG 1.1//EN" "http://www.w3.org/Graphics/SVG/1.1/DTD/svg11.dtd"><svg t="1508165603593" class="icon" style="" viewBox="0 0 1024 1024" version="1.1" xmlns="http://www.w3.org/2000/svg" p-id="992" xmlns:xlink="http://www.w3.org/1999/xlink" width="32" height="32"><defs><style type="text/css"></style></defs><path d="M512 835.2c16 0 28.8-12.8 28.8-32V460.8c0-16-12.8-32-28.8-32s-28.8 12.8-28.8 32v345.6c0 16 12.8 28.8 28.8 28.8zM665.6 835.2c16 0 28.8-12.8 28.8-32V460.8c0-16-12.8-32-28.8-32s-28.8 12.8-28.8 32v345.6c0 16 12.8 28.8 28.8 28.8zM358.4 835.2c16 0 28.8-12.8 28.8-32V460.8c0-16-12.8-32-28.8-32s-28.8 12.8-28.8 32v345.6c0 16 12.8 28.8 28.8 28.8z" p-id="993" fill="#d81e06"></path><path d="M867.2 156.8H672V86.4c0-28.8-22.4-54.4-54.4-54.4h-211.2c-28.8 0-54.4 25.6-54.4 54.4v70.4H156.8c-28.8 0-54.4 25.6-54.4 54.4v86.4c0 32 25.6 54.4 54.4 54.4h32v512c0 70.4 54.4 128 124.8 128h393.6c67.2 0 124.8-57.6 124.8-128V352h32c28.8 0 54.4-25.6 54.4-54.4V211.2c3.2-28.8-22.4-54.4-51.2-54.4zM412.8 86.4h198.4v70.4h-198.4V86.4zM774.4 864c0 38.4-28.8 67.2-64 67.2H313.6c-35.2 0-64-28.8-64-67.2V352h524.8v512z m86.4-576H163.2V214.4h697.6V288z" p-id="994" fill="#d81e06"></path></svg>