<?xml version="1.0" standalone="no"?><!DOCTYPE svg PUBLIC "-//W3C//DTD SVG 1.1//EN" "http://www.w3.org/Graphics/SVG/1.1/DTD/svg11.dtd"><svg t="1507959025815" class="icon" style="" viewBox="0 0 1024 1024" version="1.1" xmlns="http://www.w3.org/2000/svg" p-id="2358" xmlns:xlink="http://www.w3.org/1999/xlink" width="32" height="32"><defs><style type="text/css"></style></defs><path d="M512 1.6384C230.10304 1.6384 1.6384 230.10304 1.6384 512c0 281.83552 228.46464 510.3616 510.3616 510.3616 281.83552 0 510.3616-228.51584 510.3616-510.3616C1022.3616 230.10304 793.83552 1.6384 512 1.6384zM511.8464 971.27424c-253.63456 0-459.32544-205.63968-459.32544-459.3152 0-253.68576 205.69088-459.32544 459.32544-459.32544 253.68576 0 459.3152 205.63968 459.3152 459.32544C971.17184 765.63456 765.5424 971.27424 511.8464 971.27424zM620.27776 532.4288c57.6-36.1984 96.01024-100.12672 96.01024-173.16864 0-112.95744-91.5968-204.51328-204.544-204.51328-112.98816 0-204.544 91.55584-204.544 204.51328 0 72.58112 37.90848 136.18176 94.90432 172.4928C286.53568 575.488 204.3392 687.13472 204.3392 818.0224l0 0.2048 51.73248 0c0.39936-139.86816 113.23392-253.26592 252.88704-254.52544 0.94208 0.01024 1.85344 0.14336 2.78528 0.14336 0.83968 0 1.64864-0.12288 2.48832-0.13312 139.38688 1.57696 251.84256 114.86208 252.29312 254.5152l49.83808 0 0-0.2048C816.37376 687.7696 734.95552 576.60416 620.27776 532.4288zM510.2592 511.39584c-84.82816 0-153.6-68.77184-153.6-153.6 0-84.82816 68.78208-153.6 153.6-153.6s153.6 68.78208 153.6 153.6C663.8592 442.624 595.07712 511.39584 510.2592 511.39584z" p-id="2359"></path></svg>